<?xml version="1.0" ?><!DOCTYPE svg  PUBLIC '-//W3C//DTD SVG 1.1//EN'  'http://www.w3.org/Graphics/SVG/1.1/DTD/svg11.dtd'><svg enable-background="new 0 0 491.68 257.564" height="257.564px" id="Layer_1" version="1.1" viewBox="0 0 491.68 257.564" width="491.68px" xml:space="preserve" xmlns="http://www.w3.org/2000/svg" xmlns:xlink="http://www.w3.org/1999/xlink"><path d="M33.145,76.542c24.721-18.287,53.184-39.352,71.854-53.195c46.051-34.158,63.998-24.967,82.676-9.402  c4.131,3.441,4.688,9.588,1.246,13.719c-3.443,4.137-9.588,4.688-13.725,1.25c-10.984-9.16-24.975-16.293-44.631,0.508  L81.285,73.974C64.518,74.054,48.439,74.919,33.145,76.542z M316.488,28.914c10.984-9.16,24.975-16.293,44.631,0.508L410.4,73.974  c16.768,0.08,32.846,0.945,48.141,2.568c-24.723-18.287-53.186-39.352-71.855-53.195c-46.049-34.158-63.998-24.967-82.676-9.402  c-4.131,3.441-4.688,9.588-1.244,13.719C306.207,31.8,312.354,32.351,316.488,28.914z M491.68,95.753v35.66  c0,0-7.805,8.916-8.25,17.83c-3.752,75.049-40.365,108.32-110.547,108.32c-56.494,0-77.066-15.348-92.465-60.703  c-16.646-49.041-25.662-58.762-34.576-58.762s-17.928,9.721-34.576,58.762c-15.395,45.355-35.971,60.703-92.463,60.703  c-70.18,0-106.795-33.271-110.547-108.32C7.809,140.33,0,131.414,0,131.414v-35.66c60.41-12.48,132.621-8.469,180.316,1.336  c53.014,10.9,78.037,10.9,131.051,0C359.063,87.285,431.277,83.273,491.68,95.753z"/></svg>